HIERARCHY
ROOT Hips
{
	OFFSET 0 0 0
	CHANNELS 6 Xposition Yposition Zposition Zrotation Yrotation Xrotation
	JOINT Chest
	{
		OFFSET 0 33 0
		CHANNELS 3 Zrotation Yrotation Xrotation
		JOINT Chest2
		{
			OFFSET 0 23 0
			CHANNELS 3 Zrotation Yrotation Xrotation
			JOINT Neck
			{
				OFFSET 0 7 0
				CHANNELS 3 Zrotation Yrotation Xrotation
				JOINT Head
				{
					OFFSET 0 15 0
					CHANNELS 3 Zrotation Yrotation Xrotation
					End Site
					{
						OFFSET 0.0 0.0 0.0
					}
				}
			}
			JOINT LeftShoulder
			{
				OFFSET -14 0 0
				CHANNELS 3 Zrotation Yrotation Xrotation
				JOINT LeftElbow
				{
					OFFSET -25 0 0
					CHANNELS 3 Zrotation Yrotation Xrotation
					JOINT LeftWrist
					{
						OFFSET -23 0 0
						CHANNELS 3 Zrotation Yrotation Xrotation
						JOINT LeftHand
						{
							OFFSET -8.32 0 0
							CHANNELS 3 Zrotation Yrotation Xrotation
							End Site
							{
								OFFSET 0.0 0.0 0.0
							}
						}
					}
				}
			}
			JOINT RightShoulder
			{
				OFFSET 14 0 0
				CHANNELS 3 Zrotation Yrotation Xrotation
				JOINT RightElbow
				{
					OFFSET 25 0 0
					CHANNELS 3 Zrotation Yrotation Xrotation
					JOINT RightWrist
					{
						OFFSET 23 0 0
						CHANNELS 3 Zrotation Yrotation Xrotation
						JOINT RightHand
						{
							OFFSET 8.32 0 0
							CHANNELS 3 Zrotation Yrotation Xrotation
							End Site
							{
								OFFSET 0.0 0.0 0.0
							}
						}
					}
				}
			}
		}
	}
	JOINT HipLeft
	{
		OFFSET -9.52 0 0
		CHANNELS 3 Zrotation Yrotation Xrotation
		JOINT LeftKnee
		{
			OFFSET 0 -37.32 0
			CHANNELS 3 Zrotation Yrotation Xrotation
			JOINT LeftAnkle
			{
				OFFSET 0 -34.6 0
				CHANNELS 3 Zrotation Yrotation Xrotation
				JOINT LeftFoot
				{
					OFFSET 0 0 8.91
					CHANNELS 3 Zrotation Yrotation Xrotation
					End Site
					{
						OFFSET 0.0 0.0 0.0
					}
				}
			}
		}
	}
	JOINT RightHip
	{
		OFFSET 9.52 0 0
		CHANNELS 3 Zrotation Yrotation Xrotation
		JOINT RightKnee
		{
			OFFSET 0 -37.32 0
			CHANNELS 3 Zrotation Yrotation Xrotation
			JOINT RightAnkle
			{
				OFFSET 0 -34.6 0
				CHANNELS 3 Zrotation Yrotation Xrotation
				JOINT RightFoot
				{
					OFFSET 0 0 8.91
					CHANNELS 3 Zrotation Yrotation Xrotation
					End Site
					{
						OFFSET 0.0 0.0 0.0
					}
				}
			}
		}
	}
}

MOTION
Frames: 16
Frame Time: 0.033333
-3.27985 22.756 299.45 179.565 -4.23458 -175.744 0.0563998 -0.0610265 2.16826 -3.48278 0.270878 8.23835 0 0 0 0 0 0 62.2197 4.54783 55.3249 3.9349e-06 29.7847 64.7747 11.6009 13.0893 13.7431 0 0 0 -31.4887 -14.6744 -65.6745 180 -63.3359 132.127 5.18336 -21.5105 -15.0155 0 0 0 9.49109 68.3072 16.7804 15.3141 -67.2063 -13.9543 -180 6.03246e-07 -12.6799 0 0 0 23.4847 82.6448 18.2044 -29.5707 -83.6925 35.146 -180 -1.12573e-07 -10.9922 0 0 0 
-3.27981 22.7522 299.452 179.618 -4.52154 -175.635 -0.00719832 -0.0612489 2.23885 -3.28011 0.246053 8.17315 0 0 0 0 0 0 62.6681 3.7955 56.8898 0 26.579 63.6346 10.0616 13.5828 15.2467 0 0 0 -29.7537 -15.179 -71.8808 -180 -62.9899 125.947 6.23351 -23.1762 -17.5686 3.41509e-06 1.59028e-15 -5.33609e-08 9.26329 68.0367 16.4639 15.2388 -67.0394 -13.9152 -180 2.07663e-07 -12.6954 0 0 0 22.0946 82.4097 16.669 -29.5858 -83.4691 35.058 -180 3.34596e-07 -11.1077 -2.13443e-07 0 0 
-3.28976 22.7489 299.445 179.665 -4.75116 -175.486 0.0304956 -0.0616126 2.1941 -3.36038 0.252849 8.212 0 0 0 0 0 0 62.9053 3.25802 56.2443 1.51982e-05 25.9975 64.1478 10.3546 12.1649 14.2871 0 0 0 -26.4917 -15.1497 -75.6051 180 -65.5995 109.733 6.45863e-06 -28.1702 -2.06063e-06 0 0 0 8.9417 67.8295 16.0829 14.9926 -66.8722 -13.64 -180 1.07682e-06 -12.626 0 0 0 20.6805 82.2507 15.1839 -28.7702 -83.3475 34.2 -180 2.47345e-07 -11.1594 0 0 0 
-3.29096 22.7385 299.438 179.652 -5.02059 -175.35 0.0579235 -0.0638154 2.17923 -3.48896 0.261506 8.21289 0 0 0 0 0 0 63.1467 2.58675 54.3668 -3.80651e-06 26.2113 65.6803 9.76239 9.00121 10.4863 0 0 0 -25.6639 -15.2181 -77.6747 180 -66.6851 108.752 -2.57239e-06 -29.7357 1.7871e-06 0 0 0 8.66055 67.5686 15.7755 14.9196 -66.6902 -13.5777 -180 -5.58961e-07 -12.5949 0 0 0 19.2416 82.0333 13.6947 -28.3042 -83.1613 33.7142 -180 -1.02413e-07 -11.1962 -2.13443e-07 0 0 
-3.2905 22.727 299.413 179.648 -5.25965 -175.281 0.0774248 -0.0624513 2.10013 -3.58103 0.274559 8.31747 0 0 0 0 0 0 63.2823 2.1567 52.9524 6.65984e-06 26.1841 66.6161 4.61199 6.47948 6.38995 0 0 0 -25.0963 -15.1446 -78.2286 180 -67.2772 106.612 2.46357e-06 -29.3267 -3.5128e-06 0 0 0 8.45712 67.3389 15.5741 15.0246 -66.5116 -13.6316 -180 -6.97347e-07 -12.5336 0 0 0 18.3408 81.8229 12.7486 -27.5828 -83.0175 32.992 -180 7.82612e-07 -11.2071 0 0 0 
-3.29351 22.7127 299.408 179.643 -5.36189 -175.234 0.0913296 -0.0638167 2.07189 -3.60167 0.266762 8.2594 4.26887e-07 0 0 4.26887e-07 0 0 63.2466 1.93454 49.963 4.75817e-06 26.2119 68.2885 -2.65302 2.46859 1.86879 0 0 0 -25.2193 -14.9941 -78.2107 180 -67.4193 106.404 -1.89649 -23.0198 0.624271 0 0 0 8.24526 67.2517 15.3574 15.1388 -66.4573 -13.573 -180 -5.39143e-07 -12.4002 0 0 0 17.7602 81.7402 12.1519 -27.4185 -82.9637 32.8725 -180 1.75173e-07 -11.1805 -2.13443e-07 0 0 
-3.30473 22.7007 299.388 179.63 -5.52111 -175.16 0.116141 -0.0627025 2.02146 -3.63479 0.266312 8.155 0 0 0 0 0 0 62.9399 1.84322 25.9543 8.13046e-06 32.852 81.9816 0.588909 17.3584 10.2166 0 0 0 -27.2928 -14.455 -72.3705 180 -70.9024 108.384 -0.389338 -8.65662 -0.570963 0 -8.53774e-07 0 8.14224 67.0904 15.258 15.0513 -66.4419 -13.5088 -180 -4.93362e-07 -12.366 0 0 0 16.9961 81.6058 11.3658 -27.297 -82.9743 32.7412 -180 -1.09411e-06 -11.194 -2.13443e-07 3.18055e-15 1.70755e-06 
-3.3126 22.6798 299.37 179.621 -5.47891 -175.166 0.111417 -0.0634851 2.00522 -3.62594 0.262228 8.2309 0 0 0 0 0 0 61.8081 2.31727 24.489 2.11767e-06 36.2607 81.7867 -9.74923 5.40782 1.67882 0 0 0 -36.3293 -11.6475 -65.0888 180 -64.1254 111.367 2.43492 -1.55011 -0.199144 0 0 0 8.13238 67.1335 15.2517 14.9702 -66.4533 -13.3575 -180 6.05608e-07 -12.3023 0 0 0 17.281 81.6335 11.6398 -27.6624 -82.9472 33.1036 -180 2.28895e-07 -11.1676 0 0 0 
-3.33623 22.6436 299.315 179.59 -5.56392 -175.234 0.10485 -0.062879 2.02563 -3.52771 0.258625 8.40707 0 -4.26887e-07 0 0 -4.26887e-07 0 61.1707 2.51518 14.1532 9.48554e-06 43.9403 86.6282 -1.95006 8.01146 2.40815 0 0 0 -37.7148 -11.1312 -55.8101 180 -71.3881 116.267 -2.62553 -11.4043 -1.35755 0 0 0 8.37864 67.0218 15.5658 15.0059 -66.5196 -13.4363 -180 1.45576e-07 -12.27 0 0 0 17.8982 81.5166 12.2749 -28.5041 -82.9613 33.9006 -180 -1.25971e-07 -11.1366 -1.06722e-07 0 0 
-3.34755 22.6341 299.301 179.581 -5.44907 -175.25 0.0951302 -0.0639745 2.02812 -3.30609 0.222157 8.42843 0 0 0 0 0 0 60.3409 2.61953 7.88285 2.6081e-06 49.1024 89.1883 -8.71351 1.38381 0.11531 0 0 0 -39.8724 -9.42065 -50.2798 -180 -75.6442 119.132 0.656613 -0.622836 -0.152035 2.56132e-06 1.70755e-06 3.81667e-14 8.43968 67.1315 15.6605 15.1499 -66.6267 -13.5256 -180 -9.44196e-07 -12.219 0 0 0 18.5963 81.6041 12.9771 -29.4122 -83.0137 34.7853 -180 -6.31112e-07 -11.0886 0 0 0 
-3.35261 22.6233 299.281 179.572 -5.4128 -175.29 0.14182 -0.0632329 1.98666 -2.99494 0.176299 8.55686 3.97569e-16 -2.66804e-08 -1.70755e-06 3.97569e-16 -2.66804e-08 -1.70755e-06 59.3976 2.76465 -1.48361 6.0936e-06 55.9138 93.0269 -7.55696 9.83194 -0.135375 0 0 0 -41.2803 -9.08854 -43.6559 180 -84.5017 123.66 -4.3272 -0.00815311 -0.00200565 0 0 0 8.60857 67.1523 15.8537 15.2182 -66.7522 -13.6242 -180 4.44389e-07 -12.2091 0 0 0 18.6484 81.631 13.033 -30.5891 -83.0435 36.0682 -180 2.90983e-07 -10.9941 1.06722e-07 2.13443e-07 3.33505e-09 
-3.35865 22.6199 299.264 179.552 -5.30166 -175.312 0.194935 -0.064003 1.95687 -2.48687 0.0919236 8.52472 0 0 0 0 0 0 58.4038 3.29731 -3.71004 0 63.7159 93.7685 -4.40329 -5.66843 0.581091 3.41509e-06 2.13443e-07 6.36111e-15 -41.0302 -9.36912 -37.7066 -1.14524e-05 -81.4253 -51.8044 -9.14718 3.53202 1.02254 0 0 0 8.79279 67.2441 16.0472 15.272 -67.0082 -13.7599 -180 3.07606e-07 -12.2452 0 0 0 18.6541 81.7684 13.2186 -30.0613 -83.4505 35.683 -180 1.68788e-08 -10.8765 -1.06722e-07 -3.10601e-18 -3.33505e-09 
-3.35924 22.6198 299.264 179.532 -5.14165 -175.325 0.273149 -0.0635055 1.88098 -1.58366 -0.0522118 8.47601 6.36111e-15 -4.26887e-07 -1.70755e-06 6.36111e-15 -4.26887e-07 -1.70755e-06 57.37 4.1181 -10.2612 4.87553e-05 71.6268 97.1256 0.171065 -5.23725 0.867801 1.70755e-06 -4.26887e-07 -6.36111e-15 -41.8767 -9.20796 -31.4526 -1.81399e-05 -67.8812 -46.373 -9.03576 -0.900641 -0.372502 -1.70755e-06 0 0 8.82192 67.4014 16.1089 15.415 -67.3957 -13.8803 -180 -3.00311e-07 -12.2317 0 4.26887e-07 0 18.7307 81.9338 13.3818 -31.1803 -83.8746 36.8991 -180 -6.64254e-08 -10.7837 0 0 0 
-3.38192 22.615 299.245 179.479 -4.9773 -175.372 0.39496 -0.0637016 1.76914 -1.09038 -0.148548 8.68744 0 -6.67011e-09 0 0 -6.67011e-09 0 56.7946 5.16842 -17.156 2.42158e-05 77.7873 101.029 -2.92789 -3.84232 1.27788 0 0 0 -42.2941 -9.31274 -27.7722 0 -58.7261 -42.4953 -5.20813 9.51972 5.47479 0 0 0 8.94382 67.5497 16.3482 15.8471 -67.8747 -14.2814 -180 -1.05122e-07 -12.1895 0 0 0 19.4849 82.0584 14.18 -34.6936 -84.2129 40.3878 -180 4.71138e-07 -10.7221 0 0 0 
-3.38643 22.5977 299.222 179.372 -4.44651 -175.409 0.540231 -0.0649497 1.68285 -0.7172 -0.225145 8.57173 0 0 0 0 0 0 55.7845 6.0135 -22.922 -4.74096e-06 74.3282 -8.30498 -6.50009e-06 40.1733 -7.83139e-06 0 0 0 -42.7478 -9.71137 -24.3241 2.51801e-06 -47.3021 -36.8938 -2.57619 1.30628 0.988528 0 0 0 9.13945 68.0528 16.7117 16.1012 -68.309 -14.5481 -180 2.72718e-07 -12.1848 0 0 0 21.8879 82.5049 16.7794 -37.5222 -84.578 43.1306 -180 3.57314e-07 -10.6269 0 0 0 
-3.39872 22.571 299.187 179.29 -3.84757 -175.485 0.600013 -0.0634454 1.60093 -0.411993 -0.290854 8.89501 0 0 0 0 0 0 54.7247 7.26675 -31.5286 2.85369e-05 85.7106 -1.6498 -4.62992e-06 26.0698 -1.07187e-06 0 0 0 -42.9891 -11.2723 -24.7464 0 -37.3228 -30.3036 5.34484 3.68568 4.25476 0 0 0 9.42722 68.6254 17.1612 16.4732 -68.9074 -14.8837 -180 5.92011e-08 -12.1532 0 0 0 24.442 82.9772 19.3479 -44.2089 -84.7527 49.9378 -180 1.60337e-07 -10.3821 0 0 1.66753e-09 
